<svg width="1920" height="1080" viewBox="0 0 1920 1080" fill="none" xmlns="http://www.w3.org/2000/svg">
  <!-- Sky gradient -->
  <defs>
    <linearGradient id="skyGradient" x1="0%" y1="0%" x2="0%" y2="100%">
      <stop offset="0%" style="stop-color:#87CEEB;stop-opacity:1" />
      <stop offset="100%" style="stop-color:#E0F6FF;stop-opacity:1" />
    </linearGradient>
    <linearGradient id="groundGradient" x1="0%" y1="0%" x2="0%" y2="100%">
      <stop offset="0%" style="stop-color:#2E8B57;stop-opacity:1" />
      <stop offset="100%" style="stop-color:#228B22;stop-opacity:1" />
    </linearGradient>
  </defs>
  
  <!-- Sky background -->
  <rect width="1920" height="1080" fill="url(#skyGradient)"/>
  
  <!-- Clouds -->
  <ellipse cx="200" cy="150" rx="80" ry="40" fill="white" opacity="0.7"/>
  <ellipse cx="280" cy="140" rx="60" ry="30" fill="white" opacity="0.7"/>
  <ellipse cx="1600" cy="200" rx="100" ry="50" fill="white" opacity="0.6"/>
  <ellipse cx="1700" cy="190" rx="70" ry="35" fill="white" opacity="0.6"/>
  
  <!-- Ground/Runway -->
  <rect x="0" y="800" width="1920" height="280" fill="url(#groundGradient)"/>
  
  <!-- Runway -->
  <rect x="0" y="850" width="1920" height="60" fill="#404040"/>
  <rect x="0" y="875" width="1920" height="10" fill="#FFFF00" opacity="0.8"/>
  
  <!-- Runway markings -->
  <rect x="100" y="860" width="40" height="30" fill="white"/>
  <rect x="200" y="860" width="40" height="30" fill="white"/>
  <rect x="300" y="860" width="40" height="30" fill="white"/>
  <rect x="400" y="860" width="40" height="30" fill="white"/>
  <rect x="500" y="860" width="40" height="30" fill="white"/>
  
  <!-- Airport terminal building -->
  <rect x="800" y="600" width="320" height="200" fill="#C0C0C0" stroke="#808080" stroke-width="2"/>
  <rect x="820" y="620" width="60" height="80" fill="#87CEEB" opacity="0.7"/>
  <rect x="900" y="620" width="60" height="80" fill="#87CEEB" opacity="0.7"/>
  <rect x="980" y="620" width="60" height="80" fill="#87CEEB" opacity="0.7"/>
  <rect x="1060" y="620" width="60" height="80" fill="#87CEEB" opacity="0.7"/>
  
  <!-- Control tower -->
  <rect x="1200" y="500" width="80" height="300" fill="#A0A0A0" stroke="#606060" stroke-width="2"/>
  <rect x="1210" y="520" width="60" height="40" fill="#87CEEB" opacity="0.8"/>
  <rect x="1210" y="580" width="60" height="40" fill="#87CEEB" opacity="0.8"/>
  <rect x="1210" y="640" width="60" height="40" fill="#87CEEB" opacity="0.8"/>
  
  <!-- Aircraft silhouette -->
  <g transform="translate(600, 700) scale(0.8)">
    <path d="M0,40 L20,20 L60,15 L80,20 L100,40 L80,45 L60,50 L20,45 Z" fill="#2F4F4F"/>
    <path d="M20,20 L25,5 L35,5 L40,15" fill="#2F4F4F"/>
    <path d="M60,15 L65,5 L75,5 L80,20" fill="#2F4F4F"/>
    <path d="M35,25 L45,35 L55,35 L65,25" fill="#C0C0C0"/>
  </g>
  
  <!-- Another aircraft -->
  <g transform="translate(1400, 650) scale(0.6)">
    <path d="M0,40 L20,20 L60,15 L80,20 L100,40 L80,45 L60,50 L20,45 Z" fill="#696969"/>
    <path d="M20,20 L25,5 L35,5 L40,15" fill="#696969"/>
    <path d="M60,15 L65,5 L75,5 L80,20" fill="#696969"/>
  </g>
  
  <!-- Hangar -->
  <rect x="200" y="650" width="200" height="150" fill="#D3D3D3" stroke="#A9A9A9" stroke-width="2"/>
  <path d="M200,650 L300,600 L400,650 Z" fill="#A9A9A9"/>
  
  <!-- Sky details -->
  <circle cx="100" cy="100" r="1" fill="white" opacity="0.8"/>
  <circle cx="300" cy="80" r="1" fill="white" opacity="0.8"/>
  <circle cx="500" cy="120" r="1" fill="white" opacity="0.8"/>
  <circle cx="700" cy="90" r="1" fill="white" opacity="0.8"/>
  <circle cx="900" cy="110" r="1" fill="white" opacity="0.8"/>
  <circle cx="1100" cy="70" r="1" fill="white" opacity="0.8"/>
  <circle cx="1300" cy="100" r="1" fill="white" opacity="0.8"/>
  <circle cx="1500" cy="85" r="1" fill="white" opacity="0.8"/>
  <circle cx="1700" cy="95" r="1" fill="white" opacity="0.8"/>
  <circle cx="1900" cy="105" r="1" fill="white" opacity="0.8"/>
</svg>